# xmcd CD database file
#
# Track frame offsets:
#	150
#	38907
#	72491
#	88867
#	122589
#	149179
#	182650
#	223294
#	261616
#
# Disc length: 3730 seconds
#
# Revision: 0
# Processed by: cddbd v1.5.1PL0 Copyright (c) Steve Scherf et al.
# Submitted via: CDex 1.50beta9
#
DISCID=9a0e9009
DTITLE=Amadis Dunkel - Octet Sextet
DYEAR=2003
DGENRE=Jazz
TTITLE0=Freddie Freeloader
TTITLE1=Brazil
TTITLE2=Tangerine
TTITLE3=Evolution
TTITLE4=Broadway
TTITLE5=Snowflakes
TTITLE6=Freddie Freeloader (Alternate Take)
TTITLE7=Brazil (Alternate Take)
TTITLE8=Tangerine (Alternate Take)
EXTD=YEAR: 2003
EXTT0=
EXTT1=
EXTT2=
EXTT3=
EXTT4=
EXTT5=
EXTT6=
EXTT7=
EXTT8=
PLAYORDER=
